<?xml version="1.0" encoding="UTF-8" standalone="no"?>
<svg
   version="1.2"
   x="0"
   y="0"
   width="0.36999512in"
   height="0.71827257in"
   viewBox="0 0 36.999511 71.827255"
   id="svg997"
   sodipodi:docname="HT7333-A_LDO_Voltage_Regulator_3.3V_logo.svg"
   inkscape:version="1.2.2 (732a01da63, 2022-12-09)"
   xmlns:inkscape="http://www.inkscape.org/namespaces/inkscape"
   xmlns:sodipodi="http://sodipodi.sourceforge.net/DTD/sodipodi-0.dtd"
   xmlns="http://www.w3.org/2000/svg"
   xmlns:svg="http://www.w3.org/2000/svg"
   xmlns:rdf="http://www.w3.org/1999/02/22-rdf-syntax-ns#"
   xmlns:cc="http://creativecommons.org/ns#"
   xmlns:dc="http://purl.org/dc/elements/1.1/">
  <metadata
     id="metadata1003">
    <rdf:RDF>
      <cc:Work
         rdf:about="">
        <dc:format>image/svg+xml</dc:format>
        <dc:type
           rdf:resource="http://purl.org/dc/dcmitype/StillImage" />
      </cc:Work>
    </rdf:RDF>
  </metadata>
  <defs
     id="defs1001" />
  <sodipodi:namedview
     pagecolor="#ffffff"
     bordercolor="#666666"
     borderopacity="1"
     objecttolerance="10"
     gridtolerance="10"
     guidetolerance="10"
     inkscape:pageopacity="0"
     inkscape:pageshadow="2"
     inkscape:window-width="1920"
     inkscape:window-height="1017"
     id="namedview999"
     showgrid="false"
     inkscape:zoom="3.5520671"
     inkscape:cx="-3.5190777"
     inkscape:cy="10.134944"
     inkscape:window-x="-8"
     inkscape:window-y="-8"
     inkscape:window-maximized="1"
     inkscape:current-layer="svg997"
     inkscape:showpageshadow="2"
     inkscape:pagecheckerboard="0"
     inkscape:deskcolor="#d1d1d1"
     inkscape:document-units="in" />
  <path
     id="path1598"
     style="fill:#333333;fill-opacity:1;stroke:none;stroke-width:5.90328"
     d="M 18.497721,0 A 18.498001,10.657168 0 0 0 0.0793457,9.969075 H 0 v 0.687663 5.061849 h 2.2501626 a 18.498001,10.657168 0 0 0 16.2475584,5.594889 18.498001,10.657168 0 0 0 16.247558,-5.594889 h 2.254232 V 9.969075 h -0.04679 A 18.498001,10.657168 0 0 0 18.497721,0 Z" />
  <rect
     id="connector0pin"
     x="7.0005116"
     y="58.010254"
     fill="none"
     width="3"
     height="1" />
  <rect
     id="connector1pin"
     x="16.998512"
     y="58.010254"
     fill="none"
     width="3"
     height="1" />
  <rect
     id="connector2pin"
     x="26.996511"
     y="58.010254"
     fill="none"
     width="3"
     height="1" />
  <line
     id="connector0leg"
     stroke-linecap="round"
     x1="8.5005121"
     y1="60.327255"
     x2="8.5005121"
     y2="70.327255"
     stroke="#8c8c8c"
     fill="none"
     stroke-width="3" />
  <line
     id="connector1leg"
     stroke-linecap="round"
     x1="18.498512"
     y1="60.327255"
     x2="18.498512"
     y2="70.327255"
     stroke="#8c8c8c"
     fill="none"
     stroke-width="3" />
  <line
     id="connector2leg"
     stroke-linecap="round"
     x1="28.496511"
     y1="60.327255"
     x2="28.496511"
     y2="70.327255"
     stroke="#8c8c8c"
     fill="none"
     stroke-width="3" />
  <rect
     id="rect4"
     x="7.0005116"
     y="44.540253"
     fill="#8c8c8c"
     width="3"
     height="15.787" />
  <rect
     id="rect6"
     x="16.998512"
     y="44.540253"
     fill="#8c8c8c"
     width="3"
     height="15.787" />
  <rect
     id="rect8"
     x="26.996511"
     y="44.540253"
     fill="#8c8c8c"
     width="3"
     height="15.787" />
  <polygon
     id="polygon21"
     fill="#8c8c8c"
     points="5.501,44.495 12.501,44.495 12.501,56.675 10.261,57.675 7.741,57.675 5.501,56.675 "
     transform="translate(-0.50048826,-1.989746)" />
  <polygon
     id="polygon23"
     fill="#8c8c8c"
     points="15.499,44.495 22.499,44.495 22.499,56.675 20.259,57.675 17.74,57.675 15.499,56.675 "
     transform="translate(-0.50048826,-1.989746)" />
  <polygon
     id="polygon25"
     fill="#8c8c8c"
     points="25.499,44.495 32.497,44.495 32.497,56.675 30.257,57.675 27.739,57.675 25.499,56.675 "
     transform="translate(-0.50048826,-1.989746)" />
  <path
     fill="#1a1a1a"
     d="M 5.1174e-4,15.656158 V 51.754254 H 36.998512 V 15.656158 Z"
     id="path985"
     sodipodi:nodetypes="ccccc"
     style="stroke-width:1.27454" />
  <g
     aria-label="7333-A
QN2130"
     id="text234"
     style="font-size:6.94444px;line-height:1.25;fill:#ffffff;stroke-width:1.04167"
     transform="translate(-0.50048826,-1.989746)">
    <path
       d="m 4.7069634,24.410848 c -0.069444,0.01389 -0.1180555,0.03472 -0.1666666,0.09028 -0.048611,0.04167 -0.0625,0.06944 -0.083333,0.118055 -0.020833,0.05556 -0.020833,0.07639 -0.020833,0.256945 0,0.180555 0,0.201388 0.020833,0.256944 0.020833,0.04167 0.034722,0.06944 0.076389,0.111111 0.055555,0.05555 0.1180555,0.09028 0.2013887,0.09722 0.069444,0.01389 0.1458333,-0.0069 0.2083332,-0.04861 0.041667,-0.02083 0.090278,-0.07639 0.1111111,-0.111111 0.013889,-0.02778 0.034722,-0.06944 0.041667,-0.104167 v -0.0069 h 0.979166 0.9791661 v 0.590277 0.597222 L 6.456963,26.765058 c -0.3263886,0.284722 -0.6111107,0.527778 -0.6249996,0.541667 -0.034722,0.03472 -0.055555,0.06944 -0.069444,0.104166 -0.020833,0.0625 -0.020833,0.02083 -0.020833,0.958333 0,0.930555 0,0.888888 0.020833,0.951388 0.020833,0.04861 0.034722,0.07639 0.083333,0.118056 0.041667,0.04167 0.069444,0.0625 0.1180555,0.08333 0.090278,0.02778 0.173611,0.02083 0.2569443,-0.02083 0.069444,-0.02778 0.1180555,-0.07639 0.1527777,-0.145834 0.034722,-0.07639 0.027778,0.0069 0.034722,-0.881944 V 27.681679 L 7.005573,27.174735 c 0.3263887,-0.277777 0.6041663,-0.520833 0.6180551,-0.541666 0.034722,-0.03472 0.055556,-0.0625 0.069444,-0.104167 0.027778,-0.0625 0.020833,-0.0069 0.020833,-1.11111 V 24.403904 H 6.2277957 c -1.215277,0 -1.499999,0 -1.5208323,0.0069 z"
       style="font-family:OCRA;-inkscape-font-specification:OCRA"
       id="path288" />
    <path
       d="m 9.6791836,24.403904 c -0.1041666,0.02083 -0.2013888,0.09722 -0.2499998,0.194444 -0.034722,0.08333 -0.034722,0.1875 0,0.270833 0.041667,0.09028 0.1180554,0.152778 0.2152776,0.1875 l 0.034722,0.0069 h 1.1666656 l 1.173611,0.0069 -0.0069,0.645833 c 0,0.611111 0,0.645833 -0.0069,0.673611 -0.03472,0.111111 -0.111111,0.194444 -0.229167,0.229166 l -0.03472,0.01389 H 11.03344 c -0.791666,0.0069 -0.715277,0 -0.791666,0.04167 -0.08333,0.03472 -0.145833,0.111111 -0.173611,0.201388 -0.0069,0.02778 -0.01389,0.04167 -0.01389,0.09028 0,0.04861 0.0069,0.0625 0.01389,0.09028 0.02778,0.09722 0.09028,0.166666 0.173611,0.208333 0.07639,0.03472 0,0.03472 0.791666,0.03472 0.791667,0.0069 0.722222,0 0.791667,0.03472 0.06944,0.03472 0.124999,0.09028 0.159722,0.159722 0.03472,0.06945 0.02778,0 0.02778,0.729167 l 0.0069,0.652777 h -1.17366 -1.1666654 l -0.034722,0.0069 c -0.1458333,0.04861 -0.2430554,0.173611 -0.2430554,0.326389 0,0.145833 0.097222,0.270833 0.2430554,0.319444 l 0.034722,0.0069 h 1.1805544 c 0.861111,0.0069 1.201388,0 1.229166,0 0.173611,-0.02083 0.333333,-0.104167 0.444444,-0.243056 0.0625,-0.08333 0.111111,-0.180555 0.138889,-0.291666 l 0.0069,-0.04861 v -0.708333 -0.708333 l -0.0069,-0.05555 c -0.01389,-0.0625 -0.02778,-0.131945 -0.04861,-0.1875 -0.03472,-0.09722 -0.104166,-0.208333 -0.166666,-0.291667 -0.02083,-0.02083 -0.02778,-0.03472 -0.02778,-0.03472 l 0.03472,-0.04167 c 0.118055,-0.145833 0.1875,-0.326388 0.215278,-0.513888 0.0069,-0.07639 0.0069,-1.368055 0,-1.430555 -0.04167,-0.270833 -0.236111,-0.493055 -0.5,-0.555555 -0.08333,-0.02083 -0.02778,-0.02083 -1.29861,-0.02083 -0.645833,0 -1.1874995,0 -1.2013884,0 z"
       style="font-family:OCRA;-inkscape-font-specification:OCRA"
       id="path290" />
    <path
       d="m 14.644459,24.403904 c -0.104166,0.02083 -0.201388,0.09722 -0.249999,0.194444 -0.03472,0.08333 -0.03472,0.1875 0,0.270833 0.04167,0.09028 0.118055,0.152778 0.215277,0.1875 l 0.03472,0.0069 h 1.166666 l 1.173611,0.0069 -0.0069,0.645833 c 0,0.611111 0,0.645833 -0.0069,0.673611 -0.03472,0.111111 -0.111111,0.194444 -0.229167,0.229166 l -0.03472,0.01389 h -0.708333 c -0.791666,0.0069 -0.715277,0 -0.791666,0.04167 -0.08333,0.03472 -0.145833,0.111111 -0.173611,0.201388 -0.0069,0.02778 -0.01389,0.04167 -0.01389,0.09028 0,0.04861 0.0069,0.0625 0.01389,0.09028 0.02778,0.09722 0.09028,0.166666 0.173611,0.208333 0.07639,0.03472 0,0.03472 0.791666,0.03472 0.791666,0.0069 0.722222,0 0.791666,0.03472 0.06945,0.03472 0.125,0.09028 0.159722,0.159722 0.03472,0.06945 0.02778,0 0.02778,0.729167 l 0.0069,0.652777 h -1.173611 -1.166666 l -0.03472,0.0069 c -0.145833,0.04861 -0.243055,0.173611 -0.243055,0.326389 0,0.145833 0.09722,0.270833 0.243055,0.319444 l 0.03472,0.0069 h 1.180555 c 0.861111,0.0069 1.201388,0 1.229166,0 0.173611,-0.02083 0.333333,-0.104167 0.444444,-0.243056 0.0625,-0.08333 0.111111,-0.180555 0.138889,-0.291666 l 0.0069,-0.04861 v -0.708333 -0.708333 l -0.0069,-0.05555 c -0.01389,-0.0625 -0.02778,-0.131945 -0.04861,-0.1875 -0.03472,-0.09722 -0.104167,-0.208333 -0.166667,-0.291667 -0.02083,-0.02083 -0.02778,-0.03472 -0.02778,-0.03472 l 0.03472,-0.04167 c 0.118055,-0.145833 0.1875,-0.326388 0.215277,-0.513888 0.0069,-0.07639 0.0069,-1.368055 0,-1.430555 -0.04167,-0.270833 -0.236111,-0.493055 -0.499999,-0.555555 -0.08333,-0.02083 -0.02778,-0.02083 -1.298611,-0.02083 -0.645832,0 -1.187499,0 -1.201388,0 z"
       style="font-family:OCRA;-inkscape-font-specification:OCRA"
       id="path292" />
    <path
       d="m 19.609735,24.403904 c -0.104166,0.02083 -0.201389,0.09722 -0.25,0.194444 -0.03472,0.08333 -0.03472,0.1875 0,0.270833 0.04167,0.09028 0.118056,0.152778 0.215278,0.1875 l 0.03472,0.0069 h 1.166666 l 1.17361,0.0069 -0.0069,0.645833 c 0,0.611111 0,0.645833 -0.0069,0.673611 -0.03472,0.111111 -0.111111,0.194444 -0.229166,0.229166 l -0.03472,0.01389 H 20.96399 c -0.791666,0.0069 -0.715277,0 -0.791666,0.04167 -0.08333,0.03472 -0.145833,0.111111 -0.173611,0.201388 -0.0069,0.02778 -0.01389,0.04167 -0.01389,0.09028 0,0.04861 0.0069,0.0625 0.01389,0.09028 0.02778,0.09722 0.09028,0.166666 0.173611,0.208333 0.07639,0.03472 0,0.03472 0.791666,0.03472 0.791666,0.0069 0.722222,0 0.791666,0.03472 0.06944,0.03472 0.125,0.09028 0.159722,0.159722 0.03472,0.06945 0.02778,0 0.02778,0.729167 l 0.0069,0.652777 h -1.17361 -1.166666 l -0.03472,0.0069 c -0.145833,0.04861 -0.243055,0.173611 -0.243055,0.326389 0,0.145833 0.09722,0.270833 0.243055,0.319444 l 0.03472,0.0069 h 1.180555 c 0.86111,0.0069 1.201388,0 1.229166,0 0.173611,-0.02083 0.333333,-0.104167 0.444444,-0.243056 0.0625,-0.08333 0.111111,-0.180555 0.138889,-0.291666 l 0.0069,-0.04861 v -0.708333 -0.708333 l -0.0069,-0.05555 c -0.01389,-0.0625 -0.02778,-0.131945 -0.04861,-0.1875 -0.03472,-0.09722 -0.104167,-0.208333 -0.166667,-0.291667 -0.02083,-0.02083 -0.02778,-0.03472 -0.02778,-0.03472 l 0.03472,-0.04167 c 0.118055,-0.145833 0.187499,-0.326388 0.215277,-0.513888 0.0069,-0.07639 0.0069,-1.368055 0,-1.430555 -0.04167,-0.270833 -0.236111,-0.493055 -0.5,-0.555555 -0.08333,-0.02083 -0.02778,-0.02083 -1.29861,-0.02083 -0.645833,0 -1.187499,0 -1.201388,0 z"
       style="font-family:OCRA;-inkscape-font-specification:OCRA"
       id="path294" />
    <path
       d="m 24.568066,26.640013 c -0.06944,0.01389 -0.118055,0.04167 -0.166666,0.09722 -0.04861,0.04167 -0.0625,0.06944 -0.08333,0.118055 -0.02083,0.05556 -0.02083,0.07639 -0.02083,0.25 0,0.180555 0,0.201389 0.02083,0.256944 0.0069,0.02083 0.02083,0.04167 0.02778,0.05556 0.01389,0.02778 0.08333,0.09722 0.118056,0.118055 0.02778,0.02083 0.07639,0.03472 0.118055,0.04167 0.02083,0 0.368056,0.0069 1.374999,0 1.284722,0 1.347222,0 1.375,-0.0069 0.03472,-0.01389 0.09722,-0.04167 0.124999,-0.0625 0.03472,-0.03472 0.0625,-0.06944 0.08333,-0.111111 0.03472,-0.06944 0.03472,-0.06944 0.03472,-0.291666 0,-0.215278 0,-0.215278 -0.03472,-0.284722 -0.02083,-0.04167 -0.04861,-0.07639 -0.08333,-0.111111 -0.02778,-0.02083 -0.09028,-0.04861 -0.124999,-0.0625 -0.02778,-0.0069 -0.09028,-0.0069 -1.381944,-0.0069 -1.104166,0 -1.36111,0 -1.381944,0 z"
       style="font-family:OCRA;-inkscape-font-specification:OCRA"
       id="path296" />
    <path
       d="m 30.838896,24.410848 c -0.06944,0.01389 -0.118056,0.03472 -0.166667,0.09028 -0.04861,0.04167 -0.0625,0.06944 -0.08333,0.118055 -0.0069,0.02778 -1.305555,4.451386 -1.319443,4.506942 -0.0069,0.04861 -0.0069,0.118055 0,0.159722 0.05556,0.222222 0.312499,0.326389 0.506944,0.201389 0.04861,-0.03472 0.104166,-0.09722 0.125,-0.152778 0.0069,-0.01389 0.06944,-0.222222 0.138888,-0.465277 l 0.131945,-0.444445 h 0.729166 0.729166 l 0.131944,0.430556 c 0.06945,0.243055 0.131945,0.451388 0.138889,0.472222 0.03472,0.09722 0.118056,0.173611 0.222222,0.201388 0.208334,0.05556 0.416667,-0.104166 0.416667,-0.319444 0,-0.02778 0,-0.05555 -0.0069,-0.0625 0,-0.01389 -0.298611,-1.034721 -0.659722,-2.270832 -0.541666,-1.847221 -0.659721,-2.256943 -0.67361,-2.28472 -0.03472,-0.06945 -0.08333,-0.118056 -0.152778,-0.152778 -0.02083,-0.01389 -0.04861,-0.02083 -0.0625,-0.02778 -0.03472,-0.0069 -0.111111,-0.0069 -0.145833,0 z m 0.333333,2.430554 0.263889,0.916666 h -0.263889 c -0.145833,0 -0.388889,0 -0.534722,0 h -0.270833 l 0.263889,-0.92361 c 0.152777,-0.5 0.270833,-0.909722 0.270833,-0.909722 0,0 0.125,0.416666 0.270833,0.916666 z"
       style="font-family:OCRA;-inkscape-font-specification:OCRA"
       id="path298" />
    <path
       d="m 6.8041842,33.179382 c -0.1180555,0.01389 -0.2430554,0.05556 -0.3402775,0.125 -0.048611,0.03472 -0.020833,0.0069 -0.3958331,0.333333 -1.2499992,1.062499 -1.2569436,1.069444 -1.3402769,1.166666 -0.1458332,0.1875 -0.236111,0.395833 -0.2777776,0.645833 l -0.013889,0.06944 v 1.006944 c 0,1.118055 0,1.062499 0.027778,1.166666 0.055555,0.229166 0.2083332,0.423611 0.4166664,0.527777 0.2638887,0.131945 0.569444,0.111111 0.8124994,-0.04861 0.034722,-0.02083 0.1388888,-0.111111 0.3055554,-0.256944 0.1458332,-0.118056 0.2638887,-0.215278 0.2638887,-0.215278 0,0 0.055556,0.131945 0.1180555,0.305556 L 6.498629,38.31132 h 0.458333 c 0.3749998,0 0.458333,-0.0069 0.4861108,-0.0069 0.1597221,-0.03472 0.2708332,-0.166667 0.2708332,-0.326389 0,-0.166667 -0.1111111,-0.298611 -0.2708332,-0.326389 -0.027778,-0.0069 -0.083333,-0.0069 -0.2569443,-0.0069 H 6.9569619 l -0.034722,-0.08333 C 6.8250179,37.318357 6.79724,37.235024 6.79724,37.235024 c 0,0 0.111111,-0.09722 0.2499998,-0.215278 0.1458333,-0.125 0.2638887,-0.229166 0.2916665,-0.256944 0.1874999,-0.194444 0.3124998,-0.430555 0.3541664,-0.694444 0.020833,-0.118056 0.020833,-0.09028 0.020833,-1.152777 0,-0.875 0,-0.986111 -0.00694,-1.034722 -0.027782,-0.2362 -0.152782,-0.444533 -0.3541707,-0.576477 -0.1597221,-0.104167 -0.3611109,-0.152778 -0.5486108,-0.125 z m 0.1666666,0.666666 c 0.027778,0.01389 0.055555,0.04167 0.069444,0.07639 l 0.00694,0.02083 v 0.986111 0.98611 l -0.00694,0.04167 c -0.027778,0.131944 -0.090278,0.25 -0.173611,0.340277 -0.020833,0.02083 -0.1041666,0.09028 -0.1805555,0.159723 l -0.1458332,0.124999 -0.027778,-0.08333 -0.083333,-0.215277 c -0.027778,-0.06945 -0.0625,-0.138889 -0.069444,-0.152778 -0.020833,-0.03472 -0.069444,-0.09028 -0.1041666,-0.111111 -0.0625,-0.04167 -0.1458333,-0.0625 -0.2152777,-0.04861 -0.048611,0 -0.1041666,0.02083 -0.1319443,0.04167 -0.034722,0.01389 -0.1041666,0.08333 -0.1180555,0.118056 -0.041667,0.06944 -0.055555,0.166666 -0.034722,0.25 0,0.01389 0.055556,0.166666 0.1249999,0.340277 l 0.1249999,0.319444 -0.013889,0.0069 -0.3333332,0.291666 c -0.2152776,0.180556 -0.3333331,0.277778 -0.3472219,0.291667 -0.020833,0.0069 -0.027778,0.0069 -0.0625,0.0069 -0.034722,0 -0.041667,0 -0.0625,-0.0069 -0.027778,-0.01389 -0.055556,-0.04167 -0.069444,-0.06945 l -0.013889,-0.02778 v -0.986111 -0.98611 l 0.013889,-0.04861 c 0.020833,-0.118056 0.069444,-0.222222 0.1527777,-0.3125 0.013889,-0.02083 0.097222,-0.09722 0.2152776,-0.194444 0.8402773,-0.722222 1.3333325,-1.145833 1.3472214,-1.152777 0.041667,-0.02083 0.097222,-0.02083 0.1388888,-0.0069 z"
       style="font-family:OCRA;-inkscape-font-specification:OCRA"
       id="path300" />
    <path
       d="m 9.401406,35.589103 c 0,2.618053 0,2.437498 0.020833,2.499998 0.020833,0.04861 0.034722,0.07639 0.083333,0.118055 0.041667,0.04167 0.069444,0.0625 0.1180555,0.08333 0.090278,0.02778 0.173611,0.02083 0.2569442,-0.02083 0.083333,-0.04167 0.1458333,-0.111111 0.1805553,-0.208333 0.0069,-0.02778 0.0069,-0.111111 0.0069,-1.868054 v -1.840277 l 0.868055,1.979166 0.868055,1.972221 h 0.4375 l 0.4375,0.0069 v -2.437498 c 0,-2.326388 0,-2.430554 -0.0069,-2.451388 -0.02778,-0.09722 -0.09028,-0.173611 -0.173611,-0.215277 -0.09028,-0.04167 -0.173611,-0.04861 -0.263889,-0.01389 -0.04167,0.01389 -0.06944,0.03472 -0.111111,0.06944 -0.04861,0.04861 -0.07639,0.09028 -0.09722,0.159722 -0.0069,0.02778 -0.0069,0.159722 -0.0069,1.868055 l -0.0069,1.840276 -0.819444,-1.874999 -0.868055,-1.979165 -0.04861,-0.104167 H 9.8389057 9.401406 Z"
       style="font-family:OCRA;-inkscape-font-specification:OCRA"
       id="path302" />
    <path
       d="m 14.644459,33.172437 c -0.104166,0.02083 -0.201388,0.09722 -0.249999,0.194445 -0.03472,0.08333 -0.03472,0.1875 0,0.270833 0.04167,0.09028 0.118055,0.152778 0.215277,0.1875 l 0.03472,0.0069 h 1.166666 l 1.173611,0.0069 v 0.777777 0.784722 H 16.00557 c -0.631944,0 -0.986111,0.0069 -1.020833,0.0069 -0.159722,0.01389 -0.298611,0.07639 -0.409722,0.1875 -0.09722,0.09028 -0.159722,0.208333 -0.194444,0.347222 l -0.01389,0.04167 v 1.159721 1.166666 h 1.48611 c 1.263888,0 1.493054,-0.0069 1.520832,-0.0069 0.159722,-0.03472 0.270833,-0.166667 0.270833,-0.326389 0,-0.166667 -0.111111,-0.298611 -0.270833,-0.326389 -0.02778,-0.0069 -0.208333,-0.0069 -1.187499,-0.0069 h -1.152777 v -0.784722 c 0,-0.430555 0,-0.784722 0,-0.784722 0,0 0.458333,-0.0069 1.027777,-0.0069 h 1.020833 l 0.04167,-0.01389 c 0.125,-0.02778 0.229167,-0.08333 0.319445,-0.166667 0.104166,-0.111111 0.173611,-0.243055 0.201388,-0.395833 0.0069,-0.0625 0.0069,-1.680554 0,-1.743054 -0.04167,-0.270833 -0.236111,-0.493055 -0.499999,-0.555555 -0.08333,-0.02083 -0.02778,-0.02083 -1.298611,-0.02083 -0.645832,0 -1.187499,0 -1.201388,0 z"
       style="font-family:OCRA;-inkscape-font-specification:OCRA"
       id="path304" />
    <path
       d="m 19.609735,33.172437 c -0.104166,0.02083 -0.201389,0.09722 -0.25,0.194445 -0.03472,0.08333 -0.03472,0.1875 0,0.270833 0.04167,0.09028 0.118056,0.152778 0.215278,0.1875 l 0.03472,0.0069 h 0.513889 l 0.513888,0.0069 v 1.902776 1.902777 h -0.513888 -0.513889 l -0.03472,0.0069 c -0.145833,0.04861 -0.243055,0.173611 -0.243055,0.326389 0,0.145833 0.09722,0.277777 0.243055,0.319444 l 0.03472,0.0069 h 1.36111 c 1.305555,0 1.368055,0 1.388888,-0.0069 0.01389,0 0.04861,-0.01389 0.06945,-0.02778 0.0625,-0.02778 0.118055,-0.07639 0.145833,-0.145833 0.04167,-0.07639 0.03472,0.02083 0.03472,-0.965277 0,-0.652777 0,-0.888888 0,-0.909722 -0.0069,-0.04167 -0.02778,-0.09028 -0.04167,-0.118055 -0.02083,-0.03472 -0.07639,-0.09028 -0.111112,-0.111111 -0.0625,-0.04167 -0.145833,-0.0625 -0.215277,-0.04861 -0.04167,0 -0.09722,0.02083 -0.131945,0.04167 -0.02778,0.01389 -0.09722,0.08333 -0.118055,0.118056 -0.0069,0.01389 -0.01389,0.03472 -0.02083,0.04861 -0.02083,0.0625 -0.02083,0.03472 -0.02083,0.777777 v 0.6875 h -0.326388 -0.319445 v -2.23611 -2.23611 H 20.47085 c -0.465278,0 -0.847222,0 -0.861111,0 z"
       style="font-family:OCRA;-inkscape-font-specification:OCRA"
       id="path306" />
    <path
       d="m 24.575011,33.172437 c -0.104167,0.02083 -0.201389,0.09722 -0.25,0.194445 -0.03472,0.08333 -0.03472,0.1875 0,0.270833 0.04167,0.09028 0.118056,0.152778 0.215278,0.1875 l 0.03472,0.0069 h 1.166666 l 1.17361,0.0069 -0.0069,0.645833 c 0,0.61111 0,0.645832 -0.0069,0.67361 -0.03472,0.111111 -0.111111,0.194445 -0.229166,0.229167 l -0.03472,0.01389 h -0.708333 c -0.791666,0.0069 -0.715278,0 -0.791666,0.04167 -0.08333,0.03472 -0.145834,0.111111 -0.173611,0.201389 -0.0069,0.02778 -0.01389,0.04167 -0.01389,0.09028 0,0.04861 0.0069,0.0625 0.01389,0.09028 0.02778,0.09722 0.09028,0.166667 0.173611,0.208334 0.07639,0.03472 0,0.03472 0.791666,0.03472 0.791666,0.0069 0.722221,0 0.791666,0.03472 0.06944,0.03472 0.125,0.09028 0.159722,0.159722 0.03472,0.06945 0.02778,0 0.02778,0.729166 l 0.0069,0.652778 h -1.17361 -1.166666 l -0.03472,0.0069 c -0.145834,0.04861 -0.243056,0.173611 -0.243056,0.326389 0,0.145833 0.09722,0.270833 0.243056,0.319444 l 0.03472,0.0069 h 1.180555 c 0.86111,0.0069 1.201388,0 1.229166,0 0.173611,-0.02083 0.333333,-0.104167 0.444444,-0.243056 0.0625,-0.08333 0.111111,-0.180555 0.138888,-0.291666 l 0.0069,-0.04861 V 37.012713 36.30438 l -0.0069,-0.05556 c -0.01389,-0.0625 -0.02778,-0.131944 -0.04861,-0.1875 -0.03472,-0.09722 -0.104166,-0.208333 -0.166666,-0.291666 -0.02083,-0.02083 -0.02778,-0.03472 -0.02778,-0.03472 l 0.03472,-0.04167 c 0.118056,-0.145833 0.1875,-0.326389 0.215278,-0.513888 0.0069,-0.07639 0.0069,-1.368055 0,-1.430555 -0.04167,-0.270833 -0.236111,-0.493055 -0.5,-0.555555 -0.08333,-0.02083 -0.02778,-0.02083 -1.29861,-0.02083 -0.645833,0 -1.187499,0 -1.201388,0 z"
       style="font-family:OCRA;-inkscape-font-specification:OCRA"
       id="path308" />
    <path
       d="m 29.845841,33.172437 c -0.270833,0.03472 -0.493055,0.236111 -0.5625,0.5 -0.02083,0.08333 -0.02083,-0.02778 -0.02083,2.069443 0,2.097221 0,1.979166 0.02083,2.062499 0.02778,0.09722 0.06944,0.1875 0.131945,0.256944 0.09722,0.125 0.222222,0.194444 0.388888,0.236111 l 0.04167,0.0069 h 1.027777 c 0.75,0.0069 1.048611,0 1.076388,0 0.173611,-0.02083 0.333333,-0.104167 0.444444,-0.243056 0.0625,-0.07639 0.111112,-0.173611 0.138889,-0.291666 l 0.0069,-0.04167 V 35.76961 c 0,-1.430555 0,-1.979165 0,-2.006943 -0.03472,-0.277778 -0.229167,-0.5 -0.5,-0.569444 -0.08333,-0.02083 -0.04167,-0.02083 -1.138888,-0.02083 -0.5625,0 -1.034722,0 -1.055555,0 z m 2.034721,2.569443 v 1.902777 H 30.901396 29.929174 V 35.74188 33.839104 h 0.972222 0.979166 z"
       style="font-family:OCRA;-inkscape-font-specification:OCRA"
       id="path310" />
  </g>
</svg>
